<svg width="47" height="50" viewBox="0 0 47 50" fill="none" xmlns="http://www.w3.org/2000/svg">
<g clip-path="url(#clip0)">
<path fill-rule="evenodd" clip-rule="evenodd" d="M42.5377 14.6371L40.8983 16.2735C37.3462 13.1831 32.7917 11.4547 28.0562 11.4547C24.8679 11.4547 21.6813 12.2729 18.9489 13.7269L25.8703 6.81826C26.4168 7.18133 27.0538 7.36372 27.6925 7.36372C28.6027 7.36372 29.5146 7.00065 30.2421 6.2728C31.6988 4.81881 31.6988 2.54492 30.2421 1.09092C29.5129 0.363072 28.6027 0 27.6925 0C26.7823 0 25.8703 0.363072 25.1429 1.09092C23.9594 2.36423 23.7767 4.1813 24.5964 5.54495L15.8528 14.2723L14.2134 12.6359L9.75114 17.09L11.3906 18.7264L2.46429 27.6361C1.91782 27.273 1.28084 27.0907 0.642147 27.0907C-0.26807 27.0907 -1.17999 27.4537 -1.90748 28.1816C-3.36417 29.6356 -3.36417 31.9095 -1.90748 33.3635C-1.17829 33.9993 -0.26807 34.364 0.642147 34.364C1.55236 34.364 2.46429 34.001 3.19178 33.2731C4.37523 32.0918 4.55796 30.2731 3.73825 28.8191L10.6597 21.9105C7.01708 28.9111 7.83678 37.6385 13.2093 43.8193L11.5699 45.546L16.1244 50L20.5866 45.546L16.1244 41.092L14.5755 42.638C9.29347 36.4555 9.02024 27.5475 13.4825 21.0019L14.2117 21.7298L18.7662 17.2758L17.9465 16.5479C20.8616 14.4564 24.4137 13.3655 28.0562 13.3655C32.3375 13.3655 36.3438 14.9115 39.6226 17.6388L37.9832 19.1849L42.5377 23.6389L47 19.1849L42.5377 14.6388V14.6371ZM17.9702 47.6597L16.0638 49.5661L14.1574 47.6597L16.0638 45.7533L17.9702 47.6597ZM26.3225 4.62989C26.6851 4.26733 27.1396 4.08521 27.594 4.08521C28.0485 4.08521 28.5013 4.26733 28.8655 4.62989C29.5923 5.35669 29.5923 6.44606 28.8655 7.17116C28.503 7.53372 28.0485 7.71584 27.594 7.71584C27.1396 7.71584 26.6868 7.53372 26.3225 7.17116C25.5957 6.53627 25.5957 5.35499 26.3225 4.62989ZM1.90211 34.1329C1.53956 34.4954 1.08509 34.6775 0.630623 34.6775C0.176155 34.6775 -0.276611 34.4954 -0.640866 34.1329C-1.00342 33.8605 -1.18555 33.4061 -1.18555 32.8614C-1.18555 32.4069 -1.00342 31.9541 -0.640866 31.5899C-0.278313 31.2256 0.176155 31.0452 0.630623 31.0452C1.08509 31.0452 1.53786 31.2273 1.90211 31.5899C2.62892 32.3167 2.62892 33.4963 1.90211 34.1312V34.1329ZM14.0672 21.3329L12.1608 19.4265L14.0672 17.5201L15.9736 19.4265L14.0672 21.3329ZM42.3906 23.2392L40.4842 21.3329L42.3906 19.4265L44.297 21.3329L42.3906 23.2392Z" fill="#333333"/>
</g>
<defs>
<clipPath id="clip0">
<rect width="50" height="50" fill="white" transform="translate(-3)"/>
</clipPath>
</defs>
</svg>
